HIERARCHY
ROOT Hips
{
	OFFSET 0.00000 0.00000 0.00000
	CHANNELS 6 Xposition Yposition Zposition Yrotation Zrotation Xrotation 
	JOINT Lumbar
	{
		OFFSET 0 0 0
		CHANNELS 3 Zrotation Xrotation Yrotation
		JOINT Neck
		{
			OFFSET 0.00 0.2701 0.00
			CHANNELS 3 Zrotation Xrotation Yrotation
			End Site
			{
				OFFSET 0.00 0.1379 0.00
			}
		}
		JOINT RightShoulder
		{
			OFFSET 0.0119 0.2289 0.1181
			CHANNELS 3 Zrotation Xrotation Yrotation
			JOINT RightElbow
			{
				OFFSET 0.00 -0.1475 0.00
				CHANNELS 2 Zrotation Yrotation
				JOINT RightWrist
				{
					OFFSET 0.00 -0.1605 0.00
					CHANNELS 2 Zrotation Xrotation
					End Site
					{
						OFFSET 0.0040 -0.1068 0.0006
					}
				}
			}
		}
		JOINT LeftShoulder
		{
			OFFSET 0.0119 0.2289 -0.1181
			CHANNELS 3 Zrotation Xrotation Yrotation
			JOINT LeftElbow
			{
				OFFSET 0.00 -0.1475 0.00
				CHANNELS 2 Zrotation Yrotation
				JOINT LeftWrist
				{
					OFFSET 0.00 -0.1605 0.00
					CHANNELS 2 Zrotation Xrotation
					End Site
					{
						OFFSET 0.0040 -0.1068 -0.0006
					}
				}
			}
		}
	}
	JOINT RightHip
	{
		OFFSET 0.0316 -0.0424 0.0458
		CHANNELS 3 Zrotation Xrotation Yrotation
		JOINT RightKnee
		{
			OFFSET 0.00 -0.2438 0.00
			CHANNELS 1 Zrotation
			JOINT RightAnkle
			{
				OFFSET 0.00 -0.2449 0.00
				CHANNELS 3 Zrotation Xrotation Yrotation
				End Site
				{
					OFFSET 0.1237 -0.0542 0.0051
				}
			}
		}
	}
	JOINT LeftHip
	{
		OFFSET 0.0316 -0.0424 -0.0458
		CHANNELS 3 Zrotation Xrotation Yrotation
		JOINT LeftKnee
		{
			OFFSET 0.00 -0.2438 0.00
			CHANNELS 1 Zrotation
			JOINT LeftAnkle
			{
				OFFSET 0.00 -0.2449 0.00
				CHANNELS 3 Zrotation Xrotation Yrotation
				End Site
				{
					OFFSET 0.1237 -0.0542 -0.0051
				}
			}
		}
	}
}
MOTION
Frames: 17
Frame Time: 0.02
0 0.57926 0 170.42474 0 -3.00808 6.75488 3.47003 -3.75159 -23.73082 6.31575 1.44674 17.64211 -20.74671 15.36242 10.71431 81.66618 -1.23109 -4.04861 18.93067 11.11124 -11.79957 7.73459 -71.96938 4.69676 9.47894 -5.58569 9.44493 -3.76675 -7.7492 -8.3057 -3.00923 -9.3061 -7.7264 8.49011 22.5155 -2.98816 -7.44739 2.61568 6.67746
-1e-05 0.57905 -0.00241 170.60925 0 -2.88437 6.14023 3.50889 -3.71182 -21.69084 6.01915 1.01786 15.90667 -20.43339 15.32696 10.78353 81.66776 -1.23716 -4.10814 16.76038 11.50682 -12.17815 7.93328 -72.31123 4.60669 9.74458 -5.64316 9.5381 -3.88687 -7.73457 -8.23179 -3.01443 -9.32231 -6.97194 8.78575 22.03809 -4.50234 -6.98432 2.79305 7.12785
-3e-05 0.57885 -0.00482 170.79392 0 -2.76015 5.52715 3.54842 -3.67255 -19.65836 5.72266 0.59203 14.1774 -20.1218 15.28934 10.85178 81.66938 -1.243 -4.16724 14.5978 11.8999 -12.55472 8.13 -72.65045 4.51734 10.00784 -5.70163 9.6296 -4.00752 -7.7186 -8.15759 -3.01971 -9.33801 -6.21279 9.07714 21.55338 -6.02275 -6.51974 2.96977 7.58067
-6e-05 0.57864 -0.00718 170.98177 0 -2.63413 4.91603 3.59057 -3.63726 -17.63803 5.42601 0.1735 12.45802 -19.81597 15.24856 10.91805 81.67171 -1.24806 -4.22585 12.44785 12.28508 -12.92224 8.32033 -72.9822 4.43021 10.26372 -5.76379 9.71681 -4.1319 -7.69703 -8.08244 -3.02559 -9.35111 -5.43201 9.35894 21.03546 -7.58207 -6.04243 3.14523 8.06121
-2e-05 0.57842 -0.00973 171.15362 0 -2.51938 4.29652 3.6183 -3.5837 -15.55585 5.13294 -0.28457 10.68889 -19.48194 15.23151 10.99628 81.67093 -1.25734 -4.28784 10.23464 12.70995 -13.33204 8.54395 -73.35317 4.33159 10.55817 -5.80535 9.82853 -4.23717 -7.70499 -8.01342 -3.02857 -9.377 -4.77117 9.697 20.69418 -8.93453 -5.62988 3.32691 8.41115
-0.00015 0.57823 -0.0119 171.3586 0 -2.37973 3.69403 3.67687 -3.56695 -13.60485 4.83077 -0.65797 9.02496 -19.2063 15.15958 11.04816 81.67627 -1.25766 -4.34211 8.15493 13.05193 -13.65586 8.69733 -73.64105 4.25717 10.77109 -5.89113 9.8871 -4.3823 -7.65056 -7.93073 -3.03749 -9.3765 -3.85369 9.91203 19.9792 -10.72364 -5.08261 3.49556 9.02595
-0.00072 0.5781 -0.01303 171.66885 0 -2.17485 3.13457 3.82222 -3.6712 -11.98864 4.50967 -0.8041 7.6299 -19.10363 14.96859 11.03434 81.70314 -1.2326 -4.38026 6.41943 13.15345 -13.70984 8.65056 -73.69729 4.25185 10.75357 -6.10031 9.80525 -4.64773 -7.41536 -7.81346 -3.06537 -9.29659 -2.20674 9.81183 18.17862 -13.80552 -4.1192 3.6288 10.51176
-0.00148 0.578 -0.01377 172.01041 0 -1.94404 2.59234 3.99852 -3.80925 -10.50766 4.17811 -0.86369 6.34301 -19.05776 14.71645 10.99276 81.73541 -1.1986 -4.4098 4.8208 13.17345 -13.68286 8.53399 -73.6703 4.27058 10.65474 -6.35423 9.66862 -4.95067 -7.11848 -7.68183 -3.09878 -9.1924 -0.30334 9.58288 16.0095 -17.31281 -3.02718 3.74873 12.24254
-0.00218 0.57789 -0.01468 172.329 0 -1.72238 2.0442 4.15985 -3.91933 -8.98117 3.84664 -0.95879 5.01957 -18.97801 14.47032 10.959 81.76213 -1.16906 -4.43979 3.17384 13.23846 -13.71431 8.45323 -73.68267 4.2768 10.59644 -6.58697 9.55262 -5.23159 -6.855 -7.55431 -3.12813 -9.10192 1.47218 9.39665 14.04047 -20.57656 -2.02101 3.8748 13.77029
-0.00277 0.57776 -0.01564 172.68421 0 -1.51148 1.48832 4.32515 -4.08238 -7.38941 3.53401 -1.07001 3.64505 -18.93184 14.31435 10.94474 81.80166 -1.13779 -4.48397 1.47047 13.27014 -13.65517 8.35504 -73.68781 4.28959 10.52279 -6.82282 9.45406 -5.53818 -6.56885 -7.43628 -3.16423 -8.9951 3.29802 9.27678 11.93053 -24.06366 -0.89783 4.00132 15.67834
-0.00365 0.57768 -0.01641 172.97088 0 -1.27249 0.95227 4.48931 -4.14344 -5.9635 3.18077 -1.12704 2.4002 -18.82984 13.95833 10.8842 81.81612 -1.10808 -4.49706 -0.08525 13.3515 -13.76453 8.27679 -73.68915 4.29451 10.4621 -7.06335 9.30689 -5.79432 -6.31532 -7.29598 -3.1873 -8.92287 5.07656 8.98849 10.03093 -27.17177 0.01032 4.12268 16.86071
-0.00525 0.57772 -0.01673 173.05778 0 -0.95845 0.46965 4.64466 -3.91193 -4.98026 2.70884 -1.05622 1.50675 -18.55481 13.04732 10.69479 81.75728 -1.08428 -4.42215 -1.24796 13.59283 -14.36561 8.26867 -73.69241 4.27114 10.45422 -7.30132 9.03263 -5.95583 -6.16679 -7.08936 -3.17608 -8.89403 6.69071 8.26377 8.76546 -29.25529 0.30893 4.24188 15.90781
-0.00716 0.57781 -0.01688 173.07475 0 -0.61802 0.00586 4.7974 -3.57711 -4.1559 2.19853 -0.9337 0.73646 -18.22293 11.94177 10.46138 81.67356 -1.06247 -4.3171 -2.27043 13.88609 -15.13666 8.28319 -73.69592 4.23924 10.46246 -7.5433 8.71257 -6.0575 -6.05361 -6.86203 -3.15135 -8.90898 8.24224 7.37491 7.7322 -30.91766 0.38336 4.35454 14.22865
-0.00896 0.57787 -0.0171 173.12617 0 -0.29185 -0.46856 4.95016 -3.29135 -3.24701 1.7112 -0.83452 -0.10343 -17.9199 10.93503 10.25305 81.60301 -1.0401 -4.22855 -3.36947 14.15421 -15.82703 8.28895 -73.70493 4.2116 10.46549 -7.7864 8.41755 -6.14843 -5.92384 -6.65004 -3.13036 -8.94533 9.80449 6.56261 6.61554 -32.69235 0.55069 4.46457 12.93001
-0.01061 0.57795 -0.01732 173.16915 0 0.04588 -0.93382 5.10914 -2.99787 -2.39475 1.1983 -0.73317 -0.88259 -17.60465 9.87652 10.0216 81.52471 -1.01591 -4.12758 -4.40936 14.4275 -16.53389 8.28672 -73.68858 4.18281 10.45776 -8.0186 8.10259 -6.3916 -5.79256 -6.41388 -3.11825 -8.81748 11.45384 5.73601 5.38866 -34.82237 0.76216 4.59839 11.43046
-0.01267 0.578 -0.01752 173.2105 0 0.36409 -1.41366 5.25383 -2.69549 -1.46068 0.73195 -0.62496 -1.7597 -17.30245 8.88764 9.82905 81.45668 -0.99617 -4.04579 -5.54112 14.70152 -17.2418 8.30631 -73.72465 4.15451 10.47606 -8.27389 7.81921 -6.31452 -5.67561 -6.22162 -3.0862 -9.02853 12.89946 4.90377 4.45623 -36.09839 0.82458 4.68055 10.16918
-0.01571 0.57793 -0.01773 173.28256 0 0.63324 -1.94 5.36195 -2.3937 -0.26283 0.38483 -0.51313 -2.94065 -17.03475 8.07777 9.74804 81.42216 -0.98801 -4.02148 -6.95664 14.98114 -17.96252 8.39008 -73.91948 4.12582 10.5736 -8.59142 7.63309 -5.265 -5.5738 -6.17053 -2.98633 -10.2862 13.83062 4.08102 4.23954 -35.1882 0.54934 4.62794 9.78119
